<svg xmlns="http://www.w3.org/2000/svg" width="585" height="208" viewBox="0 0 585 208" fill="none">
    <rect width="585" height="208" fill="#1E1E1E"/>

    <g id="Frame 1">

        <g id="track_bar">
            <g id="track_seeker">
                <path id="track_seeker_bar" d="M80 1.5H373C375.485 1.5 377.5 3.51472 377.5 6V22C377.5 24.4853 375.485 26.5 373 26.5H80C73.0964 26.5 67.5 20.9036 67.5 14C67.5 7.09644 73.0964 1.5 80 1.5Z" fill="#392525" stroke="#1E1313" stroke-width="3" stroke-linejoin="round"/>
                <path id="track_seeker_path" d="M79 14H366" stroke="#2B0139" stroke-width="3" stroke-linecap="round"/>
                <g id="track_seeker_slider">
                    <circle id="Ellipse 1_13" cx="299" cy="14" r="8" fill="#0038FF" stroke="#1F0052" stroke-width="2"/>
                    <g id="dice_1_sign_3">
                        <rect id="dice_body_8" x="294.5" y="9.5" width="9" height="9" rx="4.5" fill="#1F0052"/>
                        <circle id="Ellipse 4_7" cx="299" cy="13.7" r="1.2" fill="#0038FF"/>
                    </g>
                </g>
            </g>

            <g id="track_timer">
                <path id="track_timer_bar" d="M386 1.5H510C516.904 1.5 522.5 7.09644 522.5 14C522.5 20.9036 516.904 26.5 510 26.5H386C383.515 26.5 381.5 24.4853 381.5 22V6C381.5 3.51472 383.515 1.5 386 1.5Z" fill="#392525" stroke="#1E1313" stroke-width="3" stroke-linejoin="round"/>
                <text id="track_timer_digits" fill="#0038FF" xml:space="preserve" style="white-space: pre" font-family="Inter" font-size="18" font-weight="bold" letter-spacing="0em">
<!--                    todo разобраться почему на мобилках шрифт выглядит по другому-->
                    <tspan x="391" y="20.5455">99:99 / 99:99</tspan>
                </text>
            </g>
        </g>

        <g id="central_thing">

            <g id="small_bar">
                <path id="btn_bar_small" d="M75 30.5H144C149.799 30.5 154.5 35.201 154.5 41V167C154.5 172.799 149.799 177.5 144 177.5H75C34.4071 177.5 1.5 144.593 1.5 104C1.5 63.4071 34.4071 30.5 75 30.5Z" fill="#392525" stroke="#1E1313" stroke-width="3" stroke-linejoin="round"/>
                <g id="stop_btn">
                    <circle id="Ellipse 1_2" cx="52" cy="104" r="29" fill="#0038FF" stroke="#1F0052" stroke-width="2"/>
                    <rect id="stop_sign" x="37.6" y="89.6" width="28.2" height="28.2" fill="#1F0052"/>
                </g>
                <g id="repeat_btns">
                    <g id="repeat_btn_off">
                        <circle id="Ellipse 1_3" cx="108" cy="137" r="29" fill="#0038FF" stroke="#1F0052" stroke-width="2"/>
                        <g id="repeat_off_sign">
                            <g id="Vector">
                                <path d="M130 138C130 150.15 120.15 160 108 160C95.8497 160 86 150.15 86 138C86 125.85 95.8497 116 108 116C120.15 116 130 125.85 130 138Z" fill="#1F0052"/>
                                <path d="M126 138C126 147.941 117.941 156 108 156C98.0589 156 90 147.941 90 138C90 128.059 98.0589 120 108 120C117.941 120 126 128.059 126 138Z" fill="#0038FF"/>
                                <path d="M109.351 112L114.062 115.331L118.562 123.423L117.834 122.921L117.067 122.447L115.962 121.852L114.825 121.339L113.842 120.969L112.846 120.66L111.918 120.428L110.992 120.248L110.175 120.13L109.351 120.05L108 120L106.649 120.05L105.008 120.248L103.304 120.619L109.351 112Z" fill="#0038FF"/>
                                <path d="M110.992 114.745L102.407 126.705L96.3417 113.29L110.992 114.745Z" fill="#1F0052"/>
                            </g>
                            <path id="Vector 1" d="M108.833 119.856C108.833 121.007 110.371 120.465 110.712 121.148" stroke="#0038FF" stroke-width="0.1" stroke-linecap="round"/>
                            <path id="Vector 2" d="M107.262 120.031H107.32" stroke="#0038FF" stroke-width="0.1" stroke-linecap="round"/>
                            <path id="Vector 3" d="M107.266 120.039H107.32" stroke="#0038FF" stroke-width="0.1" stroke-linecap="round"/>
                            <path id="Vector 4" d="M107.246 120.043C107.284 120.043 107.319 120.047 107.359 120.04C107.376 120.037 107.396 120.037 107.413 120.032C107.424 120.029 107.436 120.033 107.447 120.029C107.462 120.024 107.477 120.021 107.492 120.019C107.525 120.013 107.559 120.016 107.592 120.016C107.652 120.016 107.713 120.012 107.773 120.012C107.826 120.012 107.875 120.007 107.927 120.001C107.951 119.998 107.977 119.999 108 119.992" stroke="#0038FF" stroke-width="0.1" stroke-linecap="round"/>
                            <path id="Vector 5" d="M107.988 119.988C108.007 119.988 108.025 119.996 108.045 119.996C108.085 119.996 108.126 119.995 108.167 119.997C108.238 120.001 108.309 120.011 108.38 120.015C108.428 120.018 108.473 120.027 108.522 120.027C108.594 120.027 108.672 120.034 108.744 120.026C108.807 120.02 108.862 120.035 108.924 120.049C109.054 120.077 109.187 120.08 109.319 120.067C109.361 120.063 109.406 120.066 109.447 120.072C109.485 120.078 109.524 120.079 109.561 120.09C109.593 120.099 109.63 120.104 109.663 120.109C109.686 120.111 109.708 120.117 109.73 120.117" stroke="#0038FF" stroke-width="0.1" stroke-linecap="round"/>
                            <path id="Vector 6" d="M109.762 120.078C109.764 120.098 109.827 120.11 109.842 120.112C109.862 120.116 109.882 120.125 109.902 120.125C109.923 120.125 109.944 120.125 109.965 120.125C110.058 120.125 110.148 120.147 110.241 120.153C110.323 120.159 110.403 120.18 110.484 120.195C110.549 120.207 110.616 120.21 110.68 120.225C110.733 120.236 110.79 120.242 110.844 120.248C110.957 120.26 111.067 120.287 111.179 120.306C111.242 120.316 111.305 120.317 111.367 120.327C111.448 120.341 111.528 120.357 111.609 120.369C111.68 120.38 111.749 120.404 111.817 120.424C111.91 120.45 112.005 120.469 112.097 120.495C112.165 120.515 112.23 120.539 112.3 120.553C112.381 120.569 112.461 120.586 112.541 120.605C112.697 120.641 112.854 120.67 113.012 120.697C113.064 120.706 113.116 120.72 113.167 120.734C113.212 120.747 113.255 120.772 113.297 120.792C113.403 120.844 113.517 120.886 113.631 120.912C113.709 120.931 113.79 120.949 113.865 120.979C113.9 120.993 113.935 121.008 113.971 121.022C114.009 121.036 114.051 121.057 114.091 121.066C114.11 121.07 114.126 121.079 114.145 121.087C114.168 121.097 114.199 121.105 114.221 121.118C114.241 121.13 114.26 121.141 114.281 121.151C114.296 121.157 114.309 121.171 114.324 121.176" stroke="#0038FF" stroke-width="0.1" stroke-linecap="round"/>
                            <path id="Vector 7" d="M114.328 121.152C114.373 121.152 114.417 121.183 114.454 121.207C114.505 121.241 114.564 121.26 114.622 121.278C114.645 121.285 114.671 121.287 114.694 121.295C114.702 121.298 114.707 121.3 114.715 121.301C114.747 121.302 114.783 121.324 114.814 121.332C114.872 121.347 114.925 121.375 114.983 121.393C115.047 121.412 115.103 121.453 115.166 121.476C115.229 121.498 115.288 121.522 115.35 121.547C115.395 121.564 115.439 121.58 115.481 121.604C115.544 121.638 115.615 121.656 115.682 121.681C115.763 121.71 115.842 121.748 115.921 121.785C115.962 121.804 116.006 121.822 116.045 121.846C116.121 121.895 116.2 121.931 116.281 121.968C116.312 121.982 116.34 122.001 116.369 122.018C116.395 122.032 116.422 122.043 116.448 122.057C116.533 122.104 116.622 122.143 116.709 122.187C116.735 122.201 116.759 122.219 116.785 122.234C116.817 122.254 116.85 122.269 116.881 122.29C116.9 122.303 116.918 122.316 116.937 122.328C116.946 122.333 116.968 122.339 116.974 122.347C116.982 122.357 116.948 122.344 116.937 122.339C116.891 122.316 116.85 122.286 116.804 122.264C116.712 122.22 116.615 122.193 116.519 122.161C116.499 122.154 116.496 122.148 116.484 122.133C116.479 122.128 116.464 122.114 116.457 122.113C116.444 122.112 116.497 122.155 116.505 122.16C116.564 122.201 116.632 122.226 116.699 122.252C116.735 122.265 116.773 122.275 116.808 122.291C116.837 122.304 116.864 122.322 116.893 122.338C116.941 122.365 116.991 122.392 117.046 122.406C117.066 122.411 117.085 122.429 117.102 122.441C117.153 122.482 117.203 122.53 117.258 122.565C117.297 122.589 117.336 122.611 117.375 122.637C117.4 122.653 117.431 122.663 117.453 122.684C117.469 122.699 117.492 122.714 117.512 122.725C117.527 122.733 117.537 122.745 117.551 122.757C117.601 122.8 117.661 122.838 117.72 122.867C117.801 122.906 117.882 122.95 117.947 123.012C117.964 123.028 117.99 123.043 118.01 123.056C118.035 123.073 118.063 123.084 118.089 123.1C118.123 123.12 118.153 123.146 118.187 123.166C118.193 123.17 118.201 123.168 118.206 123.176C118.212 123.184 118.233 123.199 118.242 123.203C118.257 123.209 118.263 123.223 118.273 123.234C118.289 123.251 118.308 123.295 118.33 123.301C118.346 123.306 118.354 123.328 118.366 123.338C118.374 123.343 118.377 123.359 118.381 123.367C118.389 123.384 118.399 123.401 118.408 123.418C118.427 123.451 118.465 123.482 118.473 123.52" stroke="#0038FF" stroke-width="0.1" stroke-linecap="round"/>
                            <path id="Vector 8" d="M118.402 123.301C118.427 123.328 118.448 123.368 118.48 123.388C118.486 123.391 118.507 123.42 118.508 123.426C118.509 123.432 118.518 123.435 118.521 123.439C118.525 123.444 118.525 123.455 118.527 123.461" stroke="#0038FF" stroke-width="0.1" stroke-linecap="round"/>
                            <path id="Line 1" d="M88 157L128 117" stroke="#1F0052" stroke-width="5.65"/>
                            <path id="Line 2" d="M128.437 156.881L88 117" stroke="#1F0052" stroke-width="5.65"/>
                        </g>
                    </g>
                    <g id="repeat_btn_on">
                        <circle id="Ellipse 1_4" cx="108" cy="137" r="29" fill="#0038FF" stroke="#1F0052" stroke-width="2"/>
                        <g id="repeat_on_sign">
                            <g id="Vector_2">
                                <path d="M130 138C130 150.15 120.15 160 108 160C95.8497 160 86 150.15 86 138C86 125.85 95.8497 116 108 116C120.15 116 130 125.85 130 138Z" fill="#1F0052"/>
                                <path d="M126 138C126 147.941 117.941 156 108 156C98.0589 156 90 147.941 90 138C90 128.059 98.0589 120 108 120C117.941 120 126 128.059 126 138Z" fill="#0038FF"/>
                                <path d="M109.351 112L114.062 115.331L118.562 123.423L117.834 122.921L117.067 122.447L115.962 121.852L114.825 121.339L113.842 120.969L112.846 120.66L111.918 120.428L110.992 120.248L110.175 120.13L109.351 120.05L108 120L106.649 120.05L105.008 120.248L103.304 120.619L109.351 112Z" fill="#0038FF"/>
                                <path d="M110.992 114.745L102.407 126.705L96.3417 113.29L110.992 114.745Z" fill="#1F0052"/>
                            </g>
                            <path id="Vector 1_2" d="M108.833 119.856C108.833 121.007 110.371 120.465 110.712 121.148" stroke="#0038FF" stroke-width="0.1" stroke-linecap="round"/>
                            <path id="Vector 2_2" d="M107.262 120.031H107.32" stroke="#0038FF" stroke-width="0.1" stroke-linecap="round"/>
                            <path id="Vector 3_2" d="M107.266 120.039H107.32" stroke="#0038FF" stroke-width="0.1" stroke-linecap="round"/>
                            <path id="Vector 4_2" d="M107.246 120.043C107.284 120.043 107.319 120.047 107.359 120.04C107.376 120.037 107.396 120.037 107.413 120.032C107.424 120.029 107.436 120.033 107.447 120.029C107.462 120.024 107.477 120.021 107.492 120.019C107.525 120.013 107.559 120.016 107.592 120.016C107.652 120.016 107.713 120.012 107.773 120.012C107.826 120.012 107.875 120.007 107.927 120.001C107.951 119.998 107.977 119.999 108 119.992" stroke="#0038FF" stroke-width="0.1" stroke-linecap="round"/>
                            <path id="Vector 5_2" d="M107.988 119.988C108.007 119.988 108.025 119.996 108.045 119.996C108.085 119.996 108.126 119.995 108.167 119.997C108.238 120.001 108.309 120.011 108.38 120.015C108.428 120.018 108.473 120.027 108.522 120.027C108.594 120.027 108.672 120.034 108.744 120.026C108.807 120.02 108.862 120.035 108.924 120.049C109.054 120.077 109.187 120.08 109.319 120.067C109.361 120.063 109.406 120.066 109.447 120.072C109.485 120.078 109.524 120.079 109.561 120.09C109.593 120.099 109.63 120.104 109.663 120.109C109.686 120.111 109.708 120.117 109.73 120.117" stroke="#0038FF" stroke-width="0.1" stroke-linecap="round"/>
                            <path id="Vector 6_2" d="M109.762 120.078C109.764 120.098 109.827 120.11 109.842 120.112C109.862 120.116 109.882 120.125 109.902 120.125C109.923 120.125 109.944 120.125 109.965 120.125C110.058 120.125 110.148 120.147 110.241 120.153C110.323 120.159 110.403 120.18 110.484 120.195C110.549 120.207 110.616 120.21 110.68 120.225C110.733 120.236 110.79 120.242 110.844 120.248C110.957 120.26 111.067 120.287 111.179 120.306C111.242 120.316 111.305 120.317 111.367 120.327C111.448 120.341 111.528 120.357 111.609 120.369C111.68 120.38 111.749 120.404 111.817 120.424C111.91 120.45 112.005 120.469 112.097 120.495C112.165 120.515 112.23 120.539 112.3 120.553C112.381 120.569 112.461 120.586 112.541 120.605C112.697 120.641 112.854 120.67 113.012 120.697C113.064 120.706 113.116 120.72 113.167 120.734C113.212 120.747 113.255 120.772 113.297 120.792C113.403 120.844 113.517 120.886 113.631 120.912C113.709 120.931 113.79 120.949 113.865 120.979C113.9 120.993 113.935 121.008 113.971 121.022C114.009 121.036 114.051 121.057 114.091 121.066C114.11 121.07 114.126 121.079 114.145 121.087C114.168 121.097 114.199 121.105 114.221 121.118C114.241 121.13 114.26 121.141 114.281 121.151C114.296 121.157 114.309 121.171 114.324 121.176" stroke="#0038FF" stroke-width="0.1" stroke-linecap="round"/>
                            <path id="Vector 7_2" d="M114.328 121.152C114.373 121.152 114.417 121.183 114.454 121.207C114.505 121.241 114.564 121.26 114.622 121.278C114.645 121.285 114.671 121.287 114.694 121.295C114.702 121.298 114.707 121.3 114.715 121.301C114.747 121.302 114.783 121.324 114.814 121.332C114.872 121.347 114.925 121.375 114.983 121.393C115.047 121.412 115.103 121.453 115.166 121.476C115.229 121.498 115.288 121.522 115.35 121.547C115.395 121.564 115.439 121.58 115.481 121.604C115.544 121.638 115.615 121.656 115.682 121.681C115.763 121.71 115.842 121.748 115.921 121.785C115.962 121.804 116.006 121.822 116.045 121.846C116.121 121.895 116.2 121.931 116.281 121.968C116.312 121.982 116.34 122.001 116.369 122.018C116.395 122.032 116.422 122.043 116.448 122.057C116.533 122.104 116.622 122.143 116.709 122.187C116.735 122.201 116.759 122.219 116.785 122.234C116.817 122.254 116.85 122.269 116.881 122.29C116.9 122.303 116.918 122.316 116.937 122.328C116.946 122.333 116.968 122.339 116.974 122.347C116.982 122.357 116.948 122.344 116.937 122.339C116.891 122.316 116.85 122.286 116.804 122.264C116.712 122.22 116.615 122.193 116.519 122.161C116.499 122.154 116.496 122.148 116.484 122.133C116.479 122.128 116.464 122.114 116.457 122.113C116.444 122.112 116.497 122.155 116.505 122.16C116.564 122.201 116.632 122.226 116.699 122.252C116.735 122.265 116.773 122.275 116.808 122.291C116.837 122.304 116.864 122.322 116.893 122.338C116.941 122.365 116.991 122.392 117.046 122.406C117.066 122.411 117.085 122.429 117.102 122.441C117.153 122.482 117.203 122.53 117.258 122.565C117.297 122.589 117.336 122.611 117.375 122.637C117.4 122.653 117.431 122.663 117.453 122.684C117.469 122.699 117.492 122.714 117.512 122.725C117.527 122.733 117.537 122.745 117.551 122.757C117.601 122.8 117.661 122.838 117.72 122.867C117.801 122.906 117.882 122.95 117.947 123.012C117.964 123.028 117.99 123.043 118.01 123.056C118.035 123.073 118.063 123.084 118.089 123.1C118.123 123.12 118.153 123.146 118.187 123.166C118.193 123.17 118.201 123.168 118.206 123.176C118.212 123.184 118.233 123.199 118.242 123.203C118.257 123.209 118.263 123.223 118.273 123.234C118.289 123.251 118.308 123.295 118.33 123.301C118.346 123.306 118.354 123.328 118.366 123.338C118.374 123.343 118.377 123.359 118.381 123.367C118.389 123.384 118.399 123.401 118.408 123.418C118.427 123.451 118.465 123.482 118.473 123.52" stroke="#0038FF" stroke-width="0.1" stroke-linecap="round"/>
                            <path id="Vector 8_2" d="M118.402 123.301C118.427 123.328 118.448 123.368 118.48 123.388C118.486 123.391 118.507 123.42 118.508 123.426C118.509 123.432 118.518 123.435 118.521 123.439C118.525 123.444 118.525 123.455 118.527 123.461" stroke="#0038FF" stroke-width="0.1" stroke-linecap="round"/>
                        </g>
                    </g>
                </g>
                <g id="shuffle_btns">
                    <g id="shuffle_btn_6">
                        <circle id="Ellipse 1_5" cx="108" cy="71" r="29" fill="#0038FF" stroke="#1F0052" stroke-width="2"/>
                        <g id="dice_6_sign">
                            <rect id="dice_body_2" x="93" y="56" width="30" height="30" rx="5" fill="#1F0052"/>
                            <circle id="Ellipse 4_2" cx="99" cy="62" r="4" fill="#0038FF"/>
                            <circle id="Ellipse 5" cx="99" cy="71" r="4" fill="#0038FF"/>
                            <circle id="Ellipse 6" cx="99" cy="80" r="4" fill="#0038FF"/>
                            <circle id="Ellipse 7" cx="117" cy="62" r="4" fill="#0038FF"/>
                            <circle id="Ellipse 8" cx="117" cy="71" r="4" fill="#0038FF"/>
                            <circle id="Ellipse 9" cx="117" cy="80" r="4" fill="#0038FF"/>
                        </g>
                    </g>
                    <g id="shuffle_btn_5">
                        <circle id="Ellipse 1_6" cx="108" cy="71" r="29" fill="#0038FF" stroke="#1F0052" stroke-width="2"/>
                        <g id="dice_5_sign">
                            <rect id="dice_body_3" x="93" y="56" width="30" height="30" rx="5" fill="#1F0052"/>
                            <circle id="Ellipse 4_3" cx="99" cy="62" r="4" fill="#0038FF"/>
                            <circle id="Ellipse 5_2" cx="108" cy="71" r="4" fill="#0038FF"/>
                            <circle id="Ellipse 6_2" cx="99" cy="80" r="4" fill="#0038FF"/>
                            <circle id="Ellipse 7_2" cx="117" cy="62" r="4" fill="#0038FF"/>
                            <circle id="Ellipse 9_2" cx="117" cy="80" r="4" fill="#0038FF"/>
                        </g>
                    </g>
                    <g id="shuffle_btn_4">
                        <circle id="Ellipse 1_7" cx="108" cy="71" r="29" fill="#0038FF" stroke="#1F0052" stroke-width="2"/>
                        <g id="dice_4_sign">
                            <rect id="dice_body_4" x="93" y="56" width="30" height="30" rx="5" fill="#1F0052"/>
                            <circle id="Ellipse 4_4" cx="99" cy="62" r="4" fill="#0038FF"/>
                            <circle id="Ellipse 6_3" cx="99" cy="80" r="4" fill="#0038FF"/>
                            <circle id="Ellipse 7_3" cx="117" cy="62" r="4" fill="#0038FF"/>
                            <circle id="Ellipse 9_3" cx="117" cy="80" r="4" fill="#0038FF"/>
                        </g>
                    </g>
                    <g id="shuffle_btn_3">
                        <circle id="Ellipse 1_8" cx="108" cy="71" r="29" fill="#0038FF" stroke="#1F0052" stroke-width="2"/>
                        <g id="dice_3_sign">
                            <rect id="dice_body_5" x="93" y="56" width="30" height="30" rx="5" fill="#1F0052"/>
                            <circle id="Ellipse 7_4" cx="99" cy="62" r="4" fill="#0038FF"/>
                            <circle id="Ellipse 8_2" cx="108" cy="71" r="4" fill="#0038FF"/>
                            <circle id="Ellipse 9_4" cx="117" cy="80" r="4" fill="#0038FF"/>
                        </g>
                    </g>
                    <g id="shuffle_btn_2">
                        <circle id="Ellipse 1_9" cx="108" cy="71" r="29" fill="#0038FF" stroke="#1F0052" stroke-width="2"/>
                        <g id="dice_2_sign">
                            <rect id="dice_body_6" x="93" y="56" width="30" height="30" rx="5" fill="#1F0052"/>
                            <circle id="Ellipse 4_5" cx="99" cy="62" r="4" fill="#0038FF"/>
                            <circle id="Ellipse 5_3" cx="117" cy="80" r="4" fill="#0038FF"/>
                        </g>
                    </g>
                    <g id="shuffle_btn_1">
                        <circle id="Ellipse 1_10" cx="108" cy="71" r="29" fill="#0038FF" stroke="#1F0052" stroke-width="2"/>
                        <g id="dice_1_sign_2">
                            <rect id="dice_body_7" x="93" y="56" width="30" height="30" rx="5" fill="#1F0052"/>
                            <circle id="Ellipse 4_6" cx="108" cy="70" r="4" fill="#0038FF"/>
                        </g>
                    </g>
                </g>
            </g>

            <g id="big_bar">
                <path id="btn_bar_big" d="M169 30.5H510C550.593 30.5 583.5 63.4071 583.5 104C583.5 144.593 550.593 177.5 510 177.5H169C163.201 177.5 158.5 172.799 158.5 167V41C158.5 35.201 163.201 30.5 169 30.5Z" fill="#392525" stroke="#1E1313" stroke-width="3" stroke-linejoin="round"/>

                <g id="prev_btn" class="hover-color-change-group">
                    <circle id="Ellipse 3" class="hover-color-change-element" cx="233" cy="104" r="59" transform="rotate(-180 233 104)" fill="#0038FF" stroke="#1F0052" stroke-width="2"/>
                    <g id="prev_sign">
                        <path id="Polygon 3" d="M208.859 103.766L258.481 69.3009L258.235 138.583L208.859 103.766Z" fill="#1F0052"/>
                        <rect id="Rectangle 2" x="209" y="137" width="5" height="66" transform="rotate(-180 209 137)" fill="#1F0052"/>
                    </g>
                </g>

                <g id="next_btn" class="hover-color-change-group">
                    <circle id="Ellipse 3_2" class="hover-color-change-element" cx="507" cy="104" r="59" fill="#0038FF" stroke="#1F0052" stroke-width="2"/>
                    <g id="next_sign">
                        <path id="Polygon 3_2" d="M531.141 104.234L481.519 138.699L481.765 69.4175L531.141 104.234Z" fill="#1F0052"/>
                        <rect id="Rectangle 2_2" x="531" y="71" width="5" height="66" fill="#1F0052"/>
                    </g>
                </g>

                <g id="play_btn" class="hover-color-change-group">
                    <circle id="Ellipse 1_11" class="hover-color-change-element" cx="370" cy="104" r="59" fill="#0038FF" stroke="#1F0052" stroke-width="2"/>
                    <path id="play_sign" d="M355.254 72.3033L400.525 104.224L355.029 135.824L355.254 72.3033Z" fill="#1F0052" stroke="#1F0052" stroke-width="3"/>
                </g>

                <g id="pause_btn" class="hover-color-change-group" style="display: none;">
                    <circle id="Ellipse 1_12" class="hover-color-change-element" cx="370" cy="104" r="59" fill="#0038FF" stroke="#1F0052" stroke-width="2"/>
                    <g id="pause_sign">
                        <path id="left" d="M351 71H360V137H351V71Z" fill="#1F0052"/>
                        <path id="right" d="M380 71H389V137H380V71Z" fill="#1F0052"/>
                    </g>
                </g>

                <circle id="play_indicator" cx="316" cy="50" r="6" fill="#FF8A00" style="display: none;"/>
            </g>
        </g>

        <g id="volume_thing">
            <path id="volume_bar" d="M80 181.5H512C518.904 181.5 524.5 187.096 524.5 194C524.5 200.904 518.904 206.5 512 206.5H80C73.0964 206.5 67.5 200.904 67.5 194C67.5 187.096 73.0964 181.5 80 181.5Z" fill="#392525" stroke="#1E1313" stroke-width="3" stroke-linejoin="round"/>
            <path id="volume_path" d="M79 194L488 194" stroke="#2B0139" stroke-width="3" stroke-linecap="round"/>
            <g id="volume_slider">
<!--            координата x dice_body = cx(Ellipse 1) - 4.5    -->
                <circle id="Ellipse 1" cx="363" cy="194" r="8" fill="#0038FF" stroke="#1F0052" stroke-width="2"/>
                <g id="dice_1_sign">
                    <rect id="dice_body" x="358.5" y="189.5" width="9" height="9" rx="4.5" fill="#1F0052"/>
                    <circle id="Ellipse 4" cx="363" cy="193.7" r="1.2" fill="#0038FF"/>
                </g>
            </g>
            <g id="volume_icon">
                <path id="Icon" d="M511.536 190.464C513.488 192.417 513.488 195.583 511.536 197.536M514.364 187.636C517.879 191.151 517.879 196.849 514.364 200.364M501.586 197H500C499.448 197 499 196.552 499 196V192C499 191.448 499.448 191 500 191H501.586L506.293 186.293C506.923 185.663 508 186.109 508 187V201C508 201.891 506.923 202.337 506.293 201.707L501.586 197Z" stroke="#0038FF" stroke-width="1.5" stroke-linecap="round" stroke-linejoin="round"/>
            </g>
        </g>
    </g>
</svg>
