<svg xmlns="http://www.w3.org/2000/svg" width="585" height="208" viewBox="0 0 585 208" fill="none">
    <rect width="585" height="208" fill="#1E1E1E"/>

    <g id="Frame 1">

        <g id="track_bar">
            <g id="track_seeker">
                <path id="track_seeker_bar" d="M80 1.5H373C375.485 1.5 377.5 3.51472 377.5 6V22C377.5 24.4853 375.485 26.5 373 26.5H80C73.0964 26.5 67.5 20.9036 67.5 14C67.5 7.09644 73.0964 1.5 80 1.5Z" fill="#392525" stroke="#1E1313" stroke-width="3" stroke-linejoin="round"/>
                <path id="track_seeker_path" d="M79 14H366" stroke="#2B0139" stroke-width="3" stroke-linecap="round"/>
                <g id="track_seeker_slider" class="hover-color-change-group">
                    <circle id="Ellipse 1_13" class="hover-color-change-element track_seeker_slider" cx="80" cy="14" r="8" data-cx-from="80" data-cx-to="365" fill="#0038FF" stroke="#1F0052" stroke-width="2"/>
                    <path id="Ellipse 10_2" class="track_seeker_slider" d="M85 14C85 16.7614 82.7614 19 80 19C77.2386 19 75 16.7614 75 14C75 11.2386 77.2386 9 80 9C82.7614 9 85 11.2386 85 14ZM78.5 14C78.5 14.8284 79.1716 15.5 80 15.5C80.8284 15.5 81.5 14.8284 81.5 14C81.5 13.1716 80.8284 12.5 80 12.5C79.1716 12.5 78.5 13.1716 78.5 14Z" fill="#1F0052"/>
                </g>
            </g>

            <g id="track_timer">
                <path id="track_timer_bar" d="M386 1.5H510C516.904 1.5 522.5 7.09644 522.5 14C522.5 20.9036 516.904 26.5 510 26.5H386C383.515 26.5 381.5 24.4853 381.5 22V6C381.5 3.51472 383.515 1.5 386 1.5Z" fill="#392525" stroke="#1E1313" stroke-width="3" stroke-linejoin="round"/>
                <text id="track_timer_digits" fill="#0038FF" xml:space="preserve" style="white-space: pre" font-family="Inter" font-size="18" font-weight="bold" letter-spacing="0em">
<!--                    todo разобраться как заюзать шрифт-->
                    <tspan x="391" y="20.5455">99:99 / 99:99</tspan>
                </text>
            </g>
        </g>

        <g id="central_thing">

            <g id="small_bar">
                <path id="btn_bar_small" d="M75 30.5H144C149.799 30.5 154.5 35.201 154.5 41V167C154.5 172.799 149.799 177.5 144 177.5H75C34.4071 177.5 1.5 144.593 1.5 104C1.5 63.4071 34.4071 30.5 75 30.5Z" fill="#392525" stroke="#1E1313" stroke-width="3" stroke-linejoin="round"/>
                <g id="stop_btn" class="hover-color-change-group">
                    <circle id="Ellipse 1_2" class="hover-color-change-element" cx="52" cy="104" r="29" fill="#0038FF" stroke="#1F0052" stroke-width="2"/>
                    <rect id="stop_sign" x="37.6" y="89.6" width="28.2" height="28.2" fill="#1F0052"/>
                </g>
                <g id="repeat_btns">
                    <g id="repeat_btn_off" class="hover-color-change-group" style="display: none;">
                        <circle class="hover-color-change-element" id="Ellipse 1_9" cx="108" cy="136" r="29" fill="#0038FF" stroke="#1F0052" stroke-width="2"/>
                        <g id="repeat_off_sign">
                            <path id="Vector" d="M88 156L128 116M128.436 155.881L87.9985 116" stroke="#1F0052" stroke-width="5.65"/>
                            <path id="repeat_on_sign" d="M111.908 113.829L98.3548 110.944L99.8544 115.564C95.4757 117.309 91.7642 120.419 89.2793 124.444C86.6236 128.747 85.5308 133.832 86.1848 138.846C86.8389 143.859 89.1998 148.495 92.8704 151.972C96.541 155.449 101.297 157.555 106.339 157.937C111.38 158.319 116.4 156.953 120.552 154.068C124.704 151.183 127.736 146.956 129.138 142.099C130.539 137.241 130.225 132.048 128.247 127.395C126.342 122.912 123.005 119.193 118.766 116.814L119.654 122.008C121.863 123.848 123.62 126.198 124.759 128.878C126.396 132.729 126.656 137.027 125.496 141.048C124.336 145.069 121.826 148.567 118.389 150.955C114.952 153.342 110.798 154.473 106.625 154.157C102.452 153.841 98.5154 152.098 95.4772 149.22C92.4391 146.342 90.4849 142.505 89.9436 138.356C89.4022 134.206 90.3067 129.996 92.5049 126.435C94.518 123.174 97.5036 120.639 101.028 119.178L102.633 124.123L111.908 113.829Z" fill="#1F0052"/>
                        </g>
                    </g>
                    <g id="repeat_btn_on" class="hover-color-change-group">
                        <circle class="hover-color-change-element" id="Ellipse 1_10" cx="108" cy="136" r="29" fill="#0038FF" stroke="#1F0052" stroke-width="2"/>
                        <path id="repeat_on_sign_2" d="M111.908 113.829L98.3548 110.944L99.8544 115.564C95.4757 117.309 91.7642 120.419 89.2793 124.444C86.6236 128.747 85.5308 133.832 86.1848 138.846C86.8389 143.859 89.1998 148.495 92.8704 151.972C96.541 155.449 101.297 157.555 106.339 157.937C111.38 158.319 116.4 156.953 120.552 154.068C124.704 151.183 127.736 146.956 129.138 142.099C130.539 137.241 130.225 132.048 128.247 127.395C126.342 122.912 123.005 119.193 118.766 116.814L119.654 122.008C121.863 123.848 123.62 126.198 124.759 128.878C126.396 132.729 126.656 137.027 125.496 141.048C124.336 145.069 121.826 148.567 118.389 150.955C114.952 153.342 110.798 154.473 106.625 154.157C102.452 153.841 98.5154 152.098 95.4772 149.22C92.4391 146.342 90.4849 142.505 89.9436 138.356C89.4022 134.206 90.3067 129.996 92.5049 126.435C94.518 123.174 97.5036 120.639 101.028 119.178L102.633 124.123L111.908 113.829Z" fill="#1F0052"/>
                    </g>
                </g>
                <g id="shuffle_btns">
                    <g id="shuffle_btn_6">
                        <circle id="Ellipse 1_5" cx="108" cy="71" r="29" fill="#0038FF" stroke="#1F0052" stroke-width="2"/>
                        <g id="dice_6_sign">
                            <rect id="dice_body_2" x="93" y="56" width="30" height="30" rx="5" fill="#1F0052"/>
                            <circle id="Ellipse 4_2" cx="99" cy="62" r="4" fill="#0038FF"/>
                            <circle id="Ellipse 5" cx="99" cy="71" r="4" fill="#0038FF"/>
                            <circle id="Ellipse 6" cx="99" cy="80" r="4" fill="#0038FF"/>
                            <circle id="Ellipse 7" cx="117" cy="62" r="4" fill="#0038FF"/>
                            <circle id="Ellipse 8" cx="117" cy="71" r="4" fill="#0038FF"/>
                            <circle id="Ellipse 9" cx="117" cy="80" r="4" fill="#0038FF"/>
                        </g>
                    </g>
                    <g id="shuffle_btn_5">
                        <circle id="Ellipse 1_6" cx="108" cy="71" r="29" fill="#0038FF" stroke="#1F0052" stroke-width="2"/>
                        <g id="dice_5_sign">
                            <rect id="dice_body_3" x="93" y="56" width="30" height="30" rx="5" fill="#1F0052"/>
                            <circle id="Ellipse 4_3" cx="99" cy="62" r="4" fill="#0038FF"/>
                            <circle id="Ellipse 5_2" cx="108" cy="71" r="4" fill="#0038FF"/>
                            <circle id="Ellipse 6_2" cx="99" cy="80" r="4" fill="#0038FF"/>
                            <circle id="Ellipse 7_2" cx="117" cy="62" r="4" fill="#0038FF"/>
                            <circle id="Ellipse 9_2" cx="117" cy="80" r="4" fill="#0038FF"/>
                        </g>
                    </g>
                    <g id="shuffle_btn_4">
                        <circle id="Ellipse 1_7" cx="108" cy="71" r="29" fill="#0038FF" stroke="#1F0052" stroke-width="2"/>
                        <g id="dice_4_sign">
                            <rect id="dice_body_4" x="93" y="56" width="30" height="30" rx="5" fill="#1F0052"/>
                            <circle id="Ellipse 4_4" cx="99" cy="62" r="4" fill="#0038FF"/>
                            <circle id="Ellipse 6_3" cx="99" cy="80" r="4" fill="#0038FF"/>
                            <circle id="Ellipse 7_3" cx="117" cy="62" r="4" fill="#0038FF"/>
                            <circle id="Ellipse 9_3" cx="117" cy="80" r="4" fill="#0038FF"/>
                        </g>
                    </g>
                    <g id="shuffle_btn_3">
                        <circle id="Ellipse 1_8" cx="108" cy="71" r="29" fill="#0038FF" stroke="#1F0052" stroke-width="2"/>
                        <g id="dice_3_sign">
                            <rect id="dice_body_5" x="93" y="56" width="30" height="30" rx="5" fill="#1F0052"/>
                            <circle id="Ellipse 7_4" cx="99" cy="62" r="4" fill="#0038FF"/>
                            <circle id="Ellipse 8_2" cx="108" cy="71" r="4" fill="#0038FF"/>
                            <circle id="Ellipse 9_4" cx="117" cy="80" r="4" fill="#0038FF"/>
                        </g>
                    </g>
                    <g id="shuffle_btn_2">
                        <circle id="Ellipse 1_9" cx="108" cy="71" r="29" fill="#0038FF" stroke="#1F0052" stroke-width="2"/>
                        <g id="dice_2_sign">
                            <rect id="dice_body_6" x="93" y="56" width="30" height="30" rx="5" fill="#1F0052"/>
                            <circle id="Ellipse 4_5" cx="99" cy="62" r="4" fill="#0038FF"/>
                            <circle id="Ellipse 5_3" cx="117" cy="80" r="4" fill="#0038FF"/>
                        </g>
                    </g>
                    <g id="shuffle_btn_1" class="hover-color-change-group">
                        <circle id="Ellipse 1_10" class="hover-color-change-element"  cx="108" cy="71" r="29" fill="#0038FF" stroke="#1F0052" stroke-width="2"/>
                        <g id="dice_1_sign_2">
                            <rect id="dice_body_7" x="93" y="56" width="30" height="30" rx="5" fill="#1F0052"/>
                            <circle id="Ellipse 4_6" class="hover-color-change-element" cx="108" cy="70" r="4" fill="#0038FF"/>
                        </g>
                    </g>
                </g>
            </g>

            <g id="big_bar">
                <path id="btn_bar_big" d="M169 30.5H510C550.593 30.5 583.5 63.4071 583.5 104C583.5 144.593 550.593 177.5 510 177.5H169C163.201 177.5 158.5 172.799 158.5 167V41C158.5 35.201 163.201 30.5 169 30.5Z" fill="#392525" stroke="#1E1313" stroke-width="3" stroke-linejoin="round"/>

                <g id="prev_btn" class="hover-color-change-group">
                    <circle id="Ellipse 3" class="hover-color-change-element" cx="233" cy="104" r="59" transform="rotate(-180 233 104)" fill="#0038FF" stroke="#1F0052" stroke-width="2"/>
                    <g id="prev_sign">
                        <path id="Polygon 3" d="M208.859 103.766L258.481 69.3009L258.235 138.583L208.859 103.766Z" fill="#1F0052"/>
                        <rect id="Rectangle 2" x="209" y="137" width="5" height="66" transform="rotate(-180 209 137)" fill="#1F0052"/>
                    </g>
                </g>

                <g id="next_btn" class="hover-color-change-group">
                    <circle id="Ellipse 3_2" class="hover-color-change-element" cx="507" cy="104" r="59" fill="#0038FF" stroke="#1F0052" stroke-width="2"/>
                    <g id="next_sign">
                        <path id="Polygon 3_2" d="M531.141 104.234L481.519 138.699L481.765 69.4175L531.141 104.234Z" fill="#1F0052"/>
                        <rect id="Rectangle 2_2" x="531" y="71" width="5" height="66" fill="#1F0052"/>
                    </g>
                </g>

                <g id="play_btn" class="hover-color-change-group">
                    <circle id="Ellipse 1_11" class="hover-color-change-element" cx="370" cy="104" r="59" fill="#0038FF" stroke="#1F0052" stroke-width="2"/>
                    <path id="play_sign" d="M355.254 72.3033L400.525 104.224L355.029 135.824L355.254 72.3033Z" fill="#1F0052" stroke="#1F0052" stroke-width="3"/>
                </g>

                <g id="pause_btn" class="hover-color-change-group" style="display: none;">
                    <circle id="Ellipse 1_12" class="hover-color-change-element" cx="370" cy="104" r="59" fill="#0038FF" stroke="#1F0052" stroke-width="2"/>
                    <g id="pause_sign">
                        <path id="left" d="M351 71H360V137H351V71Z" fill="#1F0052"/>
                        <path id="right" d="M380 71H389V137H380V71Z" fill="#1F0052"/>
                    </g>
                </g>

                <circle id="play_indicator" cx="316" cy="50" r="6" fill="#FF8A00" style="display: none;"/>
            </g>
        </g>

        <g id="volume_thing">
            <path id="volume_bar" d="M80 181.5H512C518.904 181.5 524.5 187.096 524.5 194C524.5 200.904 518.904 206.5 512 206.5H80C73.0964 206.5 67.5 200.904 67.5 194C67.5 187.096 73.0964 181.5 80 181.5Z" fill="#392525" stroke="#1E1313" stroke-width="3" stroke-linejoin="round"/>
            <path id="volume_path" d="M79 194L488 194" stroke="#2B0139" stroke-width="3" stroke-linecap="round"/>
            <g id="volume_slider" class="hover-color-change-group">
                <circle id="Ellipse 1" class="hover-color-change-element volume_slider" cx="80" cy="194" r="8" data-cx-from="80" data-cx-to="488" fill="#0038FF" stroke="#1F0052" stroke-width="2"/>
                <path id="Ellipse 10" class="volume_slider" d="M85 194C85 196.761 82.7614 199 80 199C77.2386 199 75 196.761 75 194C75 191.239 77.2386 189 80 189C82.7614 189 85 191.239 85 194ZM78.5 194C78.5 194.828 79.1716 195.5 80 195.5C80.8284 195.5 81.5 194.828 81.5 194C81.5 193.172 80.8284 192.5 80 192.5C79.1716 192.5 78.5 193.172 78.5 194Z" fill="#1F0052"/>
            </g>
            <g id="volume_icon">
                <g id="icon">
                    <path id="volume_icon_fill" fill-rule="evenodd" clip-rule="evenodd" d="M501.586 197H500C499.448 197 499 196.552 499 196V192C499 191.448 499.448 191 500 191H501.586L506.293 186.293C506.923 185.663 508 186.109 508 187V201C508 201.891 506.923 202.337 506.293 201.707L501.586 197Z" fill="#0038FF"/>
                    <path d="M511.536 190.464C513.488 192.417 513.488 195.583 511.536 197.536M514.364 187.636C517.879 191.151 517.879 196.849 514.364 200.364M501.586 197H500C499.448 197 499 196.552 499 196V192C499 191.448 499.448 191 500 191H501.586L506.293 186.293C506.923 185.663 508 186.109 508 187V201C508 201.891 506.923 202.337 506.293 201.707L501.586 197Z" stroke="#0038FF" stroke-width="1.5" stroke-linecap="round" stroke-linejoin="round"/>
                </g>
                <rect id="volume_icon_background" opacity="0" x="498" y="185" width="20" height="18" fill="#D9D9D9"/>
            </g>
        </g>
    </g>
</svg>
